<?xml version="1.0" encoding="UTF-8" standalone="no"?>
<!-- Created with Inkscape (http://www.inkscape.org/) -->

<svg
   width="39.386902mm"
   height="8.9491405mm"
   viewBox="0 0 39.386902 8.9491405"
   version="1.1"
   id="svg1"
   inkscape:export-filename="ifsc.svg"
   inkscape:export-xdpi="56.765224"
   inkscape:export-ydpi="56.765224"
   sodipodi:docname="ifsc.svg"
   xmlns:inkscape="http://www.inkscape.org/namespaces/inkscape"
   xmlns:sodipodi="http://sodipodi.sourceforge.net/DTD/sodipodi-0.dtd"
   xmlns="http://www.w3.org/2000/svg"
   xmlns:svg="http://www.w3.org/2000/svg">
  <sodipodi:namedview
     id="namedview1"
     pagecolor="#ffffff"
     bordercolor="#000000"
     borderopacity="0.25"
     inkscape:showpageshadow="2"
     inkscape:pageopacity="0.0"
     inkscape:pagecheckerboard="0"
     inkscape:deskcolor="#d1d1d1"
     inkscape:document-units="mm">
    <inkscape:page
       x="0"
       y="0"
       width="39.386902"
       height="8.9491405"
       id="page2"
       margin="0"
       bleed="0" />
  </sodipodi:namedview>
  <defs
     id="defs1" />
  <g
     inkscape:label="Layer 1"
     inkscape:groupmode="layer"
     id="layer1"
     transform="translate(-39.351645,-133.24022)">
    <path
       d="m 47.980568,141.34747 v -1.65946 h 1.758243 v -3.59551 h -1.758243 v -1.65947 h 5.462407 v 1.65947 h -1.748366 v 3.59551 h 1.748366 v 1.65946 z m 7.924801,0 v -6.91444 h 1.955798 v 6.91444 z m 0.83961,-2.43981 v -1.57056 h 4.612919 v 1.57056 z m 0.108656,-2.78553 v -1.6891 h 4.889496 v 1.6891 z m 9.831217,5.32412 q -0.839611,0 -1.55081,-0.15804 -0.701322,-0.15805 -1.264355,-0.41487 -0.553155,-0.25682 -1.01741,-0.57291 l 0.888999,-1.49154 q 0.800099,0.55315 1.610077,0.79022 0.809977,0.22719 1.491543,0.22719 0.237066,0 0.513644,-0.0395 0.286455,-0.0395 0.464255,-0.14817 0.187678,-0.11853 0.187678,-0.36548 0,-0.11853 -0.07902,-0.20743 -0.07902,-0.0988 -0.246945,-0.14817 -0.158044,-0.0593 -0.385233,-0.0988 -0.217311,-0.0494 -0.493888,-0.079 -0.276578,-0.0395 -0.602544,-0.0593 -0.681566,-0.0691 -1.224844,-0.23707 -0.543277,-0.1778 -0.92851,-0.43462 -0.385233,-0.2667 -0.592666,-0.63218 -0.207433,-0.37536 -0.207433,-0.84949 0,-0.54328 0.266699,-0.96802 0.2667,-0.42474 0.730955,-0.7112 0.474133,-0.29633 1.086555,-0.4445 0.612422,-0.14817 1.303866,-0.14817 0.760588,0 1.353254,0.13829 0.592667,0.12841 1.037166,0.34572 0.4445,0.21732 0.740833,0.45438 l -0.908755,1.29399 q -0.306211,-0.18768 -0.691444,-0.31609 -0.375355,-0.13829 -0.790221,-0.20743 -0.404989,-0.079 -0.780344,-0.079 -0.375356,0 -0.661811,0.0494 -0.286455,0.0494 -0.464255,0.15805 -0.167922,0.10865 -0.167922,0.30621 0,0.15804 0.167922,0.2667 0.167922,0.10866 0.424744,0.16792 0.2667,0.0494 0.543277,0.079 0.286456,0.0296 0.513644,0.0593 0.582789,0.0593 1.135944,0.16792 0.563033,0.10866 1.007533,0.32597 0.444499,0.21731 0.701321,0.61242 0.256822,0.38523 0.256822,1.02729 0,0.74083 -0.444499,1.27423 -0.4445,0.52352 -1.205088,0.8001 -0.760589,0.2667 -1.718732,0.2667 z m 8.882931,0 q -0.908755,0 -1.689099,-0.25682 -0.770466,-0.25682 -1.353254,-0.73096 -0.582789,-0.48401 -0.908755,-1.13594 -0.316089,-0.66181 -0.316089,-1.47179 0,-0.8001 0.325966,-1.45203 0.335845,-0.66181 0.908755,-1.13594 0.572911,-0.48401 1.343377,-0.74084 0.780344,-0.2667 1.679221,-0.2667 0.6223,0 1.19521,0.13829 0.582789,0.12841 1.086555,0.36548 0.503766,0.23707 0.869244,0.54328 l -1.116188,1.49154 q -0.227189,-0.19755 -0.5334,-0.37535 -0.296333,-0.1778 -0.691444,-0.28646 -0.385233,-0.10866 -0.898877,-0.10866 -0.404988,0 -0.790222,0.11854 -0.375355,0.11853 -0.691443,0.3556 -0.306211,0.22719 -0.493889,0.57291 -0.1778,0.34572 -0.1778,0.8001 0,0.45438 0.187678,0.8001 0.197555,0.33584 0.533399,0.57291 0.345722,0.22719 0.770466,0.34572 0.424745,0.10866 0.889,0.10866 0.513644,0 0.908755,-0.13829 0.395111,-0.13829 0.691444,-0.33585 0.296333,-0.19755 0.533399,-0.36548 l 0.908755,1.49155 q -0.286455,0.23706 -0.780344,0.49389 -0.48401,0.25682 -1.10631,0.43462 -0.612422,0.16792 -1.28411,0.16792 z"
       id="text1"
       style="font-weight:800;font-size:9.87777px;line-height:0;font-family:'Lexend Tera';-inkscape-font-specification:'Lexend Tera Ultra-Bold';letter-spacing:-0.6985px;fill:#1a1a1a;stroke-width:0.264583"
       aria-label="IFSC"
       inkscape:label="text1" />
  </g>
  <path
     sodipodi:type="star"
     style="fill:#1a1a1a;stroke-width:0.264583"
     id="path2"
     inkscape:flatsided="false"
     sodipodi:sides="3"
     sodipodi:cx="44.116425"
     sodipodi:cy="141.88795"
     sodipodi:r1="2.5833943"
     sodipodi:r2="5.1667886"
     sodipodi:arg1="3.1415927"
     sodipodi:arg2="4.1887902"
     inkscape:rounded="0"
     inkscape:randomized="0"
     d="m 41.53303,141.88795 0,-4.47457 3.875092,2.23729 3.875091,2.23728 -3.875091,2.23729 -3.875092,2.23728 z"
     inkscape:transform-center-x="-1.2916946"
     transform="rotate(180,24.641607,73.181262)"
     inkscape:transform-center-y="5.881374e-06" />
</svg>
